<svg width="20" height="20" viewBox="0 0 20 20" fill="none" xmlns="http://www.w3.org/2000/svg">
<path d="M0.5 7C0.5 6.04285 0.501063 5.37558 0.568786 4.87216C0.634561 4.38323 0.754865 4.12424 0.939553 3.93955C1.12424 3.75486 1.38323 3.63456 1.87216 3.56879C2.37558 3.50106 3.04285 3.5 4 3.5H16C16.9571 3.5 17.6244 3.50106 18.1278 3.56879C18.6168 3.63456 18.8758 3.75486 19.0604 3.93955C19.2451 4.12424 19.3654 4.38323 19.4312 4.87216C19.4989 5.37558 19.5 6.04285 19.5 7C19.5 7.24956 19.4989 7.38678 19.4862 7.48212C19.486 7.48332 19.4859 7.48449 19.4857 7.48564C19.4844 7.48581 19.4831 7.48599 19.4818 7.48617C19.3863 7.49895 19.249 7.5 19 7.5H1C0.750441 7.5 0.613223 7.49895 0.51788 7.48618C0.516684 7.48602 0.515513 7.48586 0.514364 7.4857C0.514187 7.48443 0.51401 7.48313 0.513832 7.48181C0.50105 7.38629 0.5 7.24901 0.5 7Z" fill="#4D4D4D" stroke="#4D4D4D"/>
<path d="M4.79366 11.7912L4.79365 11.7912L4.79124 11.7937C4.61068 11.9754 4.54831 12.1938 4.52268 12.3851C4.49992 12.555 4.49996 12.761 4.5 12.9729C4.5 12.9819 4.5 12.991 4.5 13C4.5 13.009 4.5 13.018 4.5 13.027C4.49996 13.2385 4.49992 13.4444 4.52267 13.6144C4.54824 13.8055 4.61048 14.0243 4.79124 14.2063L4.79123 14.2064L4.79366 14.2088C4.97545 14.3893 5.19376 14.4517 5.38512 14.4773C5.55505 14.5001 5.76097 14.5 5.97291 14.5C5.98193 14.5 5.99096 14.5 6 14.5H8C8.009 14.5 8.01799 14.5 8.02698 14.5C8.23854 14.5 8.44443 14.5001 8.61444 14.4773C8.80554 14.4518 9.02434 14.3895 9.20634 14.2088L9.20876 14.2063C9.38932 14.0246 9.45169 13.8062 9.47732 13.6149C9.50008 13.445 9.50004 13.239 9.5 13.0271C9.5 13.0181 9.5 13.009 9.5 13C9.5 12.991 9.5 12.9819 9.5 12.9729C9.50004 12.761 9.50008 12.555 9.47732 12.3851C9.45169 12.1938 9.38932 11.9754 9.20876 11.7937L9.20877 11.7936L9.20634 11.7912C9.02455 11.6107 8.80624 11.5483 8.61488 11.5227C8.44495 11.4999 8.23903 11.5 8.02709 11.5C8.01807 11.5 8.00904 11.5 8 11.5H6C5.991 11.5 5.98201 11.5 5.97303 11.5C5.76146 11.5 5.55557 11.4999 5.38556 11.5227C5.19446 11.5482 4.97566 11.6105 4.79366 11.7912ZM4.79366 15.7912L4.79365 15.7912L4.79124 15.7937C4.61048 15.9757 4.54824 16.1945 4.52267 16.3856C4.49992 16.5556 4.49996 16.7615 4.5 16.973C4.5 16.982 4.5 16.991 4.5 17C4.5 17.009 4.5 17.018 4.5 17.027C4.49996 17.2385 4.49992 17.4444 4.52267 17.6144C4.54824 17.8055 4.61048 18.0243 4.79124 18.2063L4.79366 18.2088C4.97566 18.3895 5.19446 18.4518 5.38556 18.4773C5.55557 18.5001 5.76147 18.5 5.97303 18.5C5.98201 18.5 5.991 18.5 6 18.5H8C8.00904 18.5 8.01808 18.5 8.0271 18.5C8.23904 18.5 8.44496 18.5001 8.61488 18.4773C8.80624 18.4517 9.02455 18.3893 9.20634 18.2088L9.20876 18.2063C9.38952 18.0243 9.45176 17.8055 9.47733 17.6144C9.50008 17.4444 9.50004 17.2385 9.5 17.027C9.5 17.018 9.5 17.009 9.5 17C9.5 16.991 9.5 16.982 9.5 16.973C9.50004 16.7615 9.50008 16.5556 9.47733 16.3856C9.45176 16.1945 9.38952 15.9757 9.20876 15.7937L9.20877 15.7936L9.20634 15.7912C9.02434 15.6105 8.80554 15.5482 8.61444 15.5227C8.44443 15.4999 8.23854 15.5 8.02698 15.5C8.01799 15.5 8.009 15.5 8 15.5H6C5.99096 15.5 5.98193 15.5 5.97291 15.5C5.76097 15.5 5.55505 15.4999 5.38512 15.5227C5.19376 15.5483 4.97545 15.6107 4.79366 15.7912ZM10.7937 11.7912L10.7912 11.7937C10.6107 11.9754 10.5483 12.1938 10.5227 12.3851C10.4999 12.555 10.5 12.761 10.5 12.9729C10.5 12.9819 10.5 12.991 10.5 13C10.5 13.009 10.5 13.018 10.5 13.027C10.5 13.2385 10.4999 13.4444 10.5227 13.6144C10.5482 13.8055 10.6105 14.0243 10.7912 14.2063L10.7912 14.2064L10.7937 14.2088C10.9754 14.3893 11.1938 14.4517 11.3851 14.4773C11.555 14.5001 11.761 14.5 11.9729 14.5L12 14.5H14L14.027 14.5C14.2385 14.5 14.4444 14.5001 14.6144 14.4773C14.8055 14.4518 15.0243 14.3895 15.2063 14.2088L15.2088 14.2063C15.3893 14.0246 15.4517 13.8062 15.4773 13.6149C15.5001 13.445 15.5 13.239 15.5 13.0271L15.5 13L15.5 12.9729C15.5 12.761 15.5001 12.555 15.4773 12.3851C15.4517 12.1938 15.3893 11.9754 15.2088 11.7937L15.2088 11.7936L15.2063 11.7912C15.0246 11.6107 14.8062 11.5483 14.6149 11.5227C14.445 11.4999 14.239 11.5 14.0271 11.5L14 11.5H12L11.973 11.5C11.7615 11.5 11.5556 11.4999 11.3856 11.5227C11.1945 11.5482 10.9757 11.6105 10.7937 11.7912ZM10.7937 15.7912L10.7912 15.7937C10.6105 15.9757 10.5482 16.1945 10.5227 16.3856C10.4999 16.5556 10.5 16.7615 10.5 16.973C10.5 16.982 10.5 16.991 10.5 17C10.5 17.009 10.5 17.018 10.5 17.027C10.5 17.2385 10.4999 17.4444 10.5227 17.6144C10.5482 17.8055 10.6105 18.0243 10.7912 18.2063L10.7937 18.2088C10.9754 18.3893 11.1938 18.4517 11.3851 18.4773C11.555 18.5001 11.761 18.5 11.9729 18.5L12 18.5H14L14.0271 18.5C14.239 18.5 14.445 18.5001 14.6149 18.4773C14.8062 18.4517 15.0246 18.3893 15.2063 18.2088L15.2088 18.2063C15.3895 18.0243 15.4518 17.8055 15.4773 17.6144C15.5001 17.4444 15.5 17.2385 15.5 17.027L15.5 17L15.5 16.973C15.5 16.7615 15.5001 16.5556 15.4773 16.3856C15.4518 16.1945 15.3895 15.9757 15.2088 15.7937L15.2088 15.7936L15.2063 15.7912C15.0243 15.6105 14.8055 15.5482 14.6144 15.5227C14.4444 15.4999 14.2385 15.5 14.027 15.5L14 15.5H12L11.9729 15.5C11.761 15.5 11.555 15.4999 11.3851 15.5227C11.1938 15.5483 10.9754 15.6107 10.7937 15.7912ZM0.939553 19.0604C0.754865 18.8758 0.634561 18.6168 0.568786 18.1278C0.501063 17.6244 0.5 16.9571 0.5 16V11C0.5 10.751 0.50105 10.6137 0.513832 10.5182C0.51401 10.5169 0.514187 10.5156 0.514364 10.5143C0.515513 10.5141 0.516684 10.514 0.51788 10.5138C0.613223 10.5011 0.750441 10.5 1 10.5H19C19.249 10.5 19.3863 10.5011 19.4818 10.5138C19.4831 10.514 19.4844 10.5142 19.4857 10.5144C19.4859 10.5155 19.486 10.5167 19.4862 10.5179C19.4989 10.6132 19.5 10.7504 19.5 11V16C19.5 16.9571 19.4989 17.6244 19.4312 18.1278C19.3654 18.6168 19.2451 18.8758 19.0604 19.0604C18.8758 19.2451 18.6168 19.3654 18.1278 19.4312C17.6244 19.4989 16.9571 19.5 16 19.5H4C3.04285 19.5 2.37558 19.4989 1.87216 19.4312C1.38323 19.3654 1.12424 19.2451 0.939553 19.0604Z" fill="#4D4D4D" stroke="#4D4D4D"/>
<path d="M5 1V4ZM15 1V4Z" fill="#4D4D4D"/>
<path d="M5 1V4M15 1V4" stroke="#4D4D4D" stroke-width="2" stroke-linecap="round"/>
</svg>
