<svg width="204" height="74" viewBox="0 0 204 74" fill="none" xmlns="http://www.w3.org/2000/svg">
<path d="M15.6725 55.2961C9.43997 55.2961 4.93135 50.6928 3.28325 44.9339C1.72986 39.9517 1.72986 34.4959 2.18451 29.3432C-0.391842 28.6422 -0.770717 25.365 1.48359 23.9631C2.03296 23.66 2.48761 23.338 3.11275 23.1864C4.21149 18.1285 5.61333 13.1462 7.31827 8.22087C6.7689 8.29664 5.21551 8.06932 4.81769 7.82305C2.86648 6.72431 3.18853 3.92064 5.21551 3.14394C6.7689 2.59457 8.41701 2.29147 10.0462 1.96943C10.1977 1.89366 10.2735 1.74211 10.3682 1.57161C11.0691 0.794918 11.9974 0.397099 13.0203 0.397099C13.6455 0.397099 14.3464 0.548649 14.8958 1.02224C18.3246 0.529705 21.7345 0.131886 25.1633 0.207661C26.1862 0.207661 31.5473 0.283436 32.4945 0.359211C33.1197 0.359211 33.669 0.75703 34.1237 1.21168C35.5255 2.61352 34.5973 5.34142 32.4945 5.56874C26.8872 6.19389 21.204 6.66748 15.5967 7.19791C14.4222 12.3317 13.0203 17.4844 11.9405 22.6939C12.6415 22.6181 16.847 22.0688 17.5479 21.9172C18.0973 21.8414 20.5789 21.7657 21.8292 21.7657H22.5301C25.4096 21.993 26.1862 26.1985 23.5341 27.4488C22.909 27.7708 19.5559 28.7748 18.9308 28.9264C16.2787 29.6273 13.475 29.8546 10.6713 29.9494C10.2735 33.6055 10.1219 37.3564 10.7471 40.9367C11.2965 44.1382 12.452 47.9459 16.2787 47.9459C16.9796 47.9459 17.6805 47.8702 18.3056 47.7186C20.3326 47.3208 22.2081 46.3168 23.9888 45.4643C25.3148 44.9149 33.0249 40.9367 34.2752 40.4063C34.5026 40.2548 34.8246 40.2548 35.2035 40.2548C35.8286 40.2548 36.4538 40.4063 37.0031 40.8041C38.3292 41.7324 38.3292 44.0814 37.0031 45.0096C35.9802 45.7863 29.6719 49.7645 28.5921 50.4654C24.936 52.644 20.0295 55.2961 15.6535 55.2961H15.6725Z" fill="#00C700"/>
<path d="M57.3867 53.3069C57.0647 53.3069 56.6858 53.2311 56.3637 53.0796C53.0865 51.4504 52.3098 47.4722 51.8551 44.1949C50.0555 47.6238 46.7972 52.3786 42.5159 52.3786C38.2346 52.3786 36.056 48.6467 35.734 44.8959C35.3362 41.2397 35.734 37.4888 36.9843 34.06C38.6892 29.1536 42.6674 21.4435 48.8241 21.4435C51.7036 21.4435 53.5032 23.0726 54.5073 25.649C56.5342 25.4974 58.4097 26.9751 58.1634 29.002C58.0876 29.8545 58.2392 30.6312 58.2392 31.5026C58.315 33.5296 58.8643 43.8918 59.2432 45.843C59.319 46.2409 59.7168 48.4952 59.8683 48.874C60.0957 49.4992 60.3419 50.2001 60.1904 50.901C59.9631 52.3029 58.7128 53.3069 57.3867 53.3069ZM43.5199 44.8959C46.7972 42.49 50.226 34.3821 51.23 30.7259C51.3058 30.4228 50.5291 30.025 50.3775 29.7977C50.226 29.5704 49.6008 28.5474 49.4493 28.3958C49.3735 28.2443 49.222 28.4716 49.0515 28.4716C46.0205 30.6501 44.0692 35.6324 43.5199 39.0612C43.2168 40.9366 43.1221 42.9636 43.5199 44.8959Z" fill="#00C700"/>
<path d="M68.5256 46.9987C66.9722 46.9987 64.3958 46.6009 63.6949 44.9718C62.8424 43.1721 64.1685 41.0693 66.1955 41.0693C68.4498 41.0693 70.7041 40.842 72.9016 40.4442C69.8706 37.2427 66.1955 34.7611 63.1645 31.6354C62.312 30.7071 61.4595 29.4568 61.2891 28.2065C60.5881 23.9252 66.1197 21.7467 70.3252 20.648C70.8746 20.4964 71.424 20.4207 71.9544 20.4207C73.2805 20.4207 74.6065 20.8185 75.6105 21.5194C75.7621 21.5952 76.463 22.0688 76.6146 22.1445C77.9406 23.0728 77.8648 25.024 76.6903 26.1227C76.2167 26.5963 75.6863 26.7479 75.0612 26.7479C74.3602 26.7479 73.5836 26.5205 73.0342 25.9712C71.7081 26.5205 70.3821 27.2215 69.1318 27.8466C71.083 29.7978 73.1857 31.5785 75.2127 33.454C77.0124 35.1778 78.7173 37.0343 79.8161 39.2886C80.9148 41.5429 79.8161 44.2708 77.486 45.4454C74.9096 46.6956 71.405 46.9987 68.5256 46.9987Z" fill="#00C700"/>
<path d="M97.1876 73.3875C95.388 73.3875 93.6072 72.5351 92.7548 70.887C91.656 68.7842 93.0768 66.4541 95.0849 66.4541C95.4827 66.4541 95.9373 66.5299 96.3351 66.7762C97.8885 64.9765 98.3621 62.4949 98.6652 60.1458C99.5935 53.364 99.5935 46.5063 99.8397 39.6676C98.2864 41.9977 96.6382 44.3467 94.7818 46.4495C93.3041 48.0787 91.4287 49.8783 89.0986 49.8783C86.0676 49.8783 84.1922 47.302 83.4155 44.6688C81.237 37.9627 81.3128 30.4989 82.563 23.5465C82.7904 22.372 83.1124 21.0459 83.8891 20.0419C84.59 19.2652 85.594 18.7916 86.5412 18.7916C87.2421 18.7916 87.9431 19.019 88.4924 19.4925C89.1933 20.1177 89.5154 21.2164 89.8943 22.1447C90.1216 22.8456 89.97 23.6981 89.6669 24.399C89.2691 30.1579 88.8145 36.0873 90.0648 41.7704C94.9712 36.163 98.4758 29.3054 101.052 22.2962C101.602 20.8186 102.928 20.1177 104.254 20.1177C107.758 20.1177 107.986 23.4707 107.986 26.1229C108.061 31.806 107.834 37.4133 107.664 43.0965C107.512 48.628 107.36 54.1596 106.659 59.6154C105.959 64.2187 103.155 73.4065 97.2255 73.4065L97.1876 73.3875Z" fill="#00C700"/>
<path d="M121.985 67.4768C121.189 67.4768 120.166 66.8138 119.731 66.0939C119.371 65.2983 118.783 64.5595 118.348 63.8396C117.041 61.1496 116.169 57.0767 115.809 54.1783C114.71 44.3655 115.089 34.4768 115.961 24.6829C113.991 23.963 113.706 21.1972 115.374 19.8901C118.348 17.6358 122.421 16.7644 126.058 16.7644C131.211 16.7644 139.148 18.2231 140.152 24.1714C140.588 26.3499 139.868 28.7558 138.769 30.707C135.435 37.0342 129.108 41.164 122.421 43.2857C122.705 49.1772 123.14 55.0497 124.239 60.8086C124.391 61.5285 124.523 62.2673 124.523 62.9872C124.523 63.2713 124.372 63.4986 124.448 63.7828C124.599 64.4458 124.732 65.1657 124.448 65.753C124.012 66.7759 122.989 67.4958 121.985 67.4958V67.4768ZM122.269 36.5985C125.546 35.0641 128.369 33.0371 130.775 30.3471C131.646 29.2483 132.518 28.1685 133.181 26.8614C133.332 26.5773 133.692 25.7059 133.541 25.4028C132.745 23.8115 125.774 22.8643 124.315 22.8643C123.595 22.8643 122.856 22.9401 122.212 23.0158C122.136 24.6829 122.212 34.8557 122.288 36.5985H122.269Z" fill="#00C700"/>
<path d="M149.605 52.5114C148.658 52.5114 147.635 51.9242 147.199 50.8444C145.665 47.2829 145.172 43.3616 144.793 39.516C144.433 35.5947 144.206 31.6733 144.282 27.7519C144.433 23.679 144.793 6.89486 146.252 3.12506C146.763 1.89371 147.843 1.15491 149.018 1.15491C150.192 1.15491 151.423 2.02632 151.708 3.18189C152.068 4.48901 152.143 5.94768 152.219 7.33057C152.427 10.892 152.219 30.3662 151.992 33.9276C151.764 38.6446 151.329 43.3805 151.84 48.0975C151.916 48.6848 152.068 49.3289 152.124 49.9161C152.2 50.5034 151.973 51.0149 151.613 51.4506C151.101 52.1704 150.382 52.5493 149.586 52.5493L149.605 52.5114Z" fill="#00C700"/>
<path d="M175.387 48.5899C175.103 48.5899 174.743 48.5141 174.44 48.3815C171.39 46.8471 170.67 43.153 170.235 40.1031C168.568 43.3046 165.518 47.7374 161.521 47.7374C157.523 47.7374 155.496 44.2518 155.193 40.7661C154.833 37.3562 155.193 33.8706 156.349 30.6691C157.94 26.0847 161.653 18.905 167.393 18.905C170.083 18.905 171.75 20.4395 172.697 22.8264C174.592 22.6748 176.335 24.0577 176.107 25.9521C176.032 26.7477 176.183 27.4865 176.183 28.2822C176.259 30.1766 176.77 39.8379 177.13 41.6565C177.206 42.0164 177.566 44.1192 177.718 44.498C177.945 45.0853 178.153 45.7294 178.002 46.3924C177.774 47.6995 176.619 48.6467 175.387 48.6467V48.5899ZM162.468 40.7472C165.518 38.4929 168.719 30.9343 169.666 27.5244C169.742 27.2403 169.003 26.8614 168.871 26.653C168.719 26.4446 168.151 25.4975 167.999 25.3459C167.924 25.1944 167.791 25.4217 167.639 25.4217C164.798 27.4487 162.979 32.1088 162.487 35.3103C162.203 37.0531 162.127 38.9475 162.487 40.7661L162.468 40.7472Z" fill="#00C700"/>
<path d="M193.782 66.9843C192.115 66.9843 190.448 66.1887 189.633 64.6543C188.61 62.6841 189.917 60.5056 191.812 60.5056C192.172 60.5056 192.607 60.5813 192.967 60.7897C194.426 59.1227 194.862 56.7926 195.146 54.6141C196.017 48.2868 196.017 41.9028 196.244 35.4998C194.786 37.6783 193.27 39.8569 191.527 41.827C190.145 43.3615 188.402 45.0285 186.223 45.0285C183.382 45.0285 181.639 42.6227 180.919 40.16C178.892 33.9085 178.949 26.9372 180.123 20.4585C180.351 19.3597 180.635 18.1284 181.355 17.1812C181.999 16.4613 182.946 16.0256 183.817 16.0256C184.48 16.0256 185.125 16.253 185.636 16.6697C186.28 17.257 186.583 18.261 186.943 19.1324C187.151 19.7765 187.019 20.5911 186.716 21.2352C186.356 26.6152 185.92 32.1278 187.076 37.4321C191.66 32.2036 194.918 25.8006 197.324 19.265C197.836 17.8821 199.067 17.238 200.298 17.238C203.576 17.238 203.784 20.3638 203.784 22.8264C203.86 28.1307 203.633 33.3592 203.5 38.6634C203.348 43.8161 203.216 48.9878 202.553 54.0647C201.89 58.346 199.275 66.9275 193.763 66.9275L193.782 66.9843Z" fill="#00C700"/>
</svg>
