<svg width="428" height="99" viewBox="0 0 428 99" fill="none" xmlns="http://www.w3.org/2000/svg">
<path d="M436.339 0.746288L-31.6339 34.763L-27.0568 98.4883L440.916 64.4716L436.339 0.746288ZM430.867 3.75345L435.16 3.4397C435.78 3.39386 436.324 3.86058 436.369 4.4883L436.596 7.65744C436.642 8.27917 436.176 8.82471 435.55 8.86994L431.257 9.18369C430.637 9.22953 430.093 8.76281 430.054 8.1357L429.827 4.96656C429.781 4.34483 430.247 3.79929 430.873 3.76005L430.867 3.75345ZM420.884 4.4808L425.177 4.16704C425.797 4.1212 426.341 4.58792 426.38 5.21503L426.607 8.38417C426.652 9.0059 426.186 9.55144 425.56 9.59668L421.267 9.91043C420.647 9.95626 420.103 9.48955 420.064 8.86244L419.837 5.6933C419.792 5.07157 420.264 4.52663 420.883 4.48678L420.884 4.4808ZM410.894 5.20753L415.187 4.89378C415.807 4.84794 416.351 5.31466 416.39 5.94176L416.617 9.1109C416.662 9.73263 416.196 10.2782 415.57 10.3234L411.278 10.6372C410.657 10.683 410.113 10.2163 410.074 9.58917L409.847 6.42003C409.802 5.7983 410.274 5.25337 410.894 5.21351L410.894 5.20753ZM400.911 5.92888L405.204 5.61512C405.824 5.56929 406.368 6.03601 406.407 6.66312L406.634 9.83225C406.679 10.454 406.213 10.9995 405.587 11.0448L401.294 11.3585C400.674 11.4043 400.13 10.9376 400.085 10.3099L399.858 7.14078C399.813 6.51905 400.285 5.97411 400.904 5.93426L400.911 5.92888ZM390.921 6.65561L395.214 6.34186C395.834 6.29602 396.378 6.76274 396.417 7.38985L396.644 10.559C396.69 11.1807 396.224 11.7263 395.597 11.7715L391.305 12.0852C390.684 12.1311 390.141 11.6644 390.102 11.0373L389.875 7.86812C389.829 7.24639 390.301 6.70145 390.921 6.6616L390.921 6.65561ZM380.938 7.38295L385.23 7.0692C385.851 7.02336 386.395 7.49008 386.439 8.1178L386.666 11.2869C386.712 11.9087 386.246 12.4542 385.62 12.4994L381.327 12.8132C380.707 12.859 380.163 12.3923 380.124 11.7652L379.897 8.59606C379.852 7.97433 380.317 7.42879 380.943 7.38955L380.938 7.38295ZM370.954 8.11029L375.247 7.79654C375.867 7.7507 376.411 8.21742 376.45 8.84453L376.677 12.0137C376.722 12.6354 376.256 13.1809 375.63 13.2262L371.337 13.5399C370.717 13.5858 370.173 13.119 370.128 12.4913L369.901 9.32219C369.856 8.70046 370.328 8.15552 370.947 8.11567L370.954 8.11029ZM360.964 8.83702L365.257 8.52327C365.877 8.47743 366.421 8.94415 366.46 9.57126L366.687 12.7404C366.732 13.3621 366.267 13.9077 365.64 13.9529L361.348 14.2667C360.727 14.3125 360.183 13.8458 360.145 13.2187L359.918 10.0495C359.872 9.4278 360.344 8.88286 360.964 8.84301L360.964 8.83702ZM350.975 9.56376L355.267 9.25001C355.888 9.20417 356.432 9.67088 356.47 10.298L356.697 13.4671C356.743 14.0889 356.277 14.6344 355.651 14.6796L351.358 14.9934C350.738 15.0392 350.194 14.5725 350.155 13.9454L349.928 10.7763C349.883 10.1545 350.354 9.60959 350.974 9.56974L350.975 9.56376ZM340.992 10.2851L345.284 9.97136C345.905 9.92552 346.449 10.3922 346.487 11.0194L346.714 14.1885C346.76 14.8102 346.294 15.3558 345.668 15.401L341.375 15.7147C340.755 15.7606 340.211 15.2939 340.172 14.6667L339.945 11.4976C339.899 10.8759 340.371 10.3309 340.991 10.2911L340.992 10.2851ZM331.008 11.0124L335.301 10.6987C335.921 10.6529 336.465 11.1196 336.504 11.7467L336.731 14.9158C336.776 15.5376 336.31 16.0831 335.684 16.1283L331.391 16.4421C330.771 16.4879 330.227 16.0212 330.188 15.3941L329.961 12.2249C329.916 11.6032 330.388 11.0583 331.007 11.0184L331.008 11.0124ZM321.018 11.7392L325.311 11.4254C325.931 11.3796 326.475 11.8463 326.514 12.4734L326.741 15.6426C326.786 16.2643 326.321 16.8098 325.694 16.8551L321.402 17.1688C320.781 17.2147 320.237 16.7479 320.193 16.1202L319.966 12.9511C319.92 12.3293 320.392 11.7844 321.012 11.7386L321.018 11.7392ZM311.035 12.4665L315.327 12.1528C315.947 12.1069 316.491 12.5737 316.53 13.2008L316.757 16.3699C316.803 16.9916 316.337 17.5372 315.711 17.5824L311.418 17.8962C310.798 17.942 310.254 17.4753 310.215 16.8482L309.988 13.679C309.942 13.0573 310.408 12.5118 311.034 12.4725L311.035 12.4665ZM301.045 13.1873L305.338 12.8735C305.958 12.8277 306.502 13.2944 306.547 13.9221L306.774 17.0912C306.82 17.713 306.354 18.2585 305.728 18.3038L301.435 18.6175C300.815 18.6633 300.271 18.1966 300.232 17.5695L300.005 14.4004C299.959 13.7786 300.425 13.2331 301.051 13.1939L301.045 13.1873ZM291.062 13.9146L295.354 13.6009C295.975 13.555 296.519 14.0217 296.558 14.6488L296.785 17.818C296.83 18.4397 296.364 18.9853 295.738 19.0305L291.445 19.3442C290.825 19.3901 290.281 18.9234 290.236 18.2956L290.009 15.1265C289.964 14.5048 290.436 13.9598 291.055 13.92L291.062 13.9146ZM281.072 14.6413L285.365 14.3276C285.985 14.2818 286.529 14.7485 286.568 15.3756L286.795 18.5447C286.84 19.1664 286.374 19.712 285.748 19.7572L281.455 20.071C280.835 20.1168 280.291 19.6501 280.252 19.023L280.025 15.8538C279.98 15.2321 280.446 14.6866 281.071 14.6473L281.072 14.6413ZM271.088 15.3687L275.381 15.0549C276.001 15.0091 276.545 15.4758 276.59 16.1035L276.817 19.2727C276.863 19.8944 276.397 20.4399 275.77 20.4852L271.478 20.7989C270.858 20.8448 270.313 20.378 270.275 19.7509L270.048 16.5818C270.002 15.9601 270.468 15.4145 271.094 15.3753L271.088 15.3687ZM261.099 16.0954L265.391 15.7817C266.012 15.7358 266.556 16.2025 266.595 16.8296L266.821 19.9988C266.867 20.6205 266.401 21.1661 265.775 21.2113L261.482 21.525C260.862 21.5709 260.318 21.1042 260.279 20.4771L260.052 17.3079C260.007 16.6862 260.478 16.1412 261.098 16.1014L261.099 16.0954ZM251.116 16.8168L255.408 16.503C256.029 16.4572 256.573 16.9239 256.617 17.5516L256.844 20.7207C256.89 21.3425 256.424 21.888 255.798 21.9333L251.505 22.247C250.885 22.2928 250.341 21.8261 250.302 21.199L250.075 18.0299C250.03 17.4081 250.501 16.8632 251.121 16.8234L251.116 16.8168ZM241.126 17.5435L245.419 17.2297C246.039 17.1839 246.583 17.6506 246.622 18.2777L246.849 21.4469C246.894 22.0686 246.428 22.6141 245.802 22.6594L241.509 22.9731C240.889 23.019 240.345 22.5522 240.306 21.9251L240.079 18.756C240.034 18.1343 240.506 17.5893 241.125 17.5495L241.126 17.5435ZM231.142 18.2708L235.435 17.9571C236.055 17.9112 236.599 18.378 236.638 19.0051L236.865 22.1742C236.91 22.7959 236.445 23.3415 235.818 23.3867L231.526 23.7005C230.905 23.7463 230.361 23.2796 230.323 22.6525L230.096 19.4833C230.05 18.8616 230.522 18.3167 231.142 18.2768L231.142 18.2708ZM221.159 18.9982L225.451 18.6844C226.072 18.6386 226.616 19.1053 226.654 19.7324L226.881 22.9016C226.927 23.5233 226.461 24.0688 225.835 24.1141L221.542 24.4278C220.922 24.4736 220.378 24.0069 220.333 23.3792L220.106 20.2101C220.061 19.5883 220.526 19.0428 221.152 19.0036L221.159 18.9982ZM211.169 19.7249L215.462 19.4112C216.082 19.3653 216.626 19.832 216.665 20.4591L216.892 23.6283C216.937 24.25 216.471 24.7956 215.845 24.8408L211.552 25.1545C210.932 25.2004 210.388 24.7337 210.343 24.1059L210.116 20.9368C210.071 20.3151 210.543 19.7701 211.162 19.7303L211.169 19.7249ZM201.186 20.4463L205.479 20.1325C206.099 20.0867 206.643 20.5534 206.682 21.1805L206.909 24.3496C206.954 24.9714 206.488 25.5169 205.862 25.5621L201.569 25.8759C200.949 25.9217 200.405 25.455 200.366 24.8279L200.139 21.6588C200.094 21.037 200.56 20.4915 201.185 20.4522L201.186 20.4463ZM191.196 21.173L195.489 20.8592C196.109 20.8134 196.653 21.2801 196.692 21.9072L196.919 25.0764C196.964 25.6981 196.498 26.2436 195.872 26.2889L191.58 26.6026C190.959 26.6485 190.415 26.1817 190.376 25.5546L190.149 22.3855C190.104 21.7638 190.576 21.2188 191.196 21.179L191.196 21.173ZM181.212 21.9003L185.505 21.5866C186.125 21.5407 186.669 22.0075 186.708 22.6346L186.935 25.8037C186.981 26.4254 186.515 26.971 185.889 27.0162L181.596 27.33C180.976 27.3758 180.432 26.9091 180.393 26.282L180.166 23.1128C180.12 22.4911 180.592 21.9462 181.212 21.9063L181.212 21.9003ZM171.223 22.6271L175.516 22.3133C176.136 22.2675 176.68 22.7342 176.719 23.3613L176.946 26.5304C176.991 27.1522 176.525 27.6977 175.899 27.7429L171.606 28.0567C170.986 28.1025 170.442 27.6358 170.397 27.0081L170.17 23.839C170.125 23.2172 170.591 22.6717 171.216 22.6324L171.223 22.6271ZM161.239 23.3544L165.532 23.0407C166.152 22.9948 166.696 23.4615 166.735 24.0886L166.962 27.2578C167.007 27.8795 166.541 28.4251 165.915 28.4703L161.622 28.784C161.002 28.8299 160.458 28.3632 160.419 27.7361L160.192 24.5669C160.147 23.9452 160.619 23.4002 161.238 23.3604L161.239 23.3544ZM151.25 24.0752L155.543 23.7614C156.163 23.7156 156.707 24.1823 156.746 24.8094L156.973 27.9785C157.018 28.6003 156.552 29.1458 155.926 29.191L151.633 29.5048C151.013 29.5506 150.469 29.0839 150.43 28.4568L150.203 25.2877C150.158 24.6659 150.624 24.1204 151.249 24.0811L151.25 24.0752ZM141.266 24.8025L145.559 24.4887C146.179 24.4429 146.723 24.9096 146.762 25.5367L146.989 28.7059C147.035 29.3276 146.569 29.8731 145.942 29.9184L141.65 30.2321C141.029 30.278 140.485 29.8112 140.447 29.1841L140.22 26.015C140.174 25.3933 140.646 24.8483 141.266 24.8085L141.266 24.8025ZM131.277 25.5292L135.569 25.2155C136.19 25.1696 136.734 25.6363 136.772 26.2635L136.999 29.4326C137.045 30.0543 136.579 30.5999 135.953 30.6451L131.66 30.9589C131.04 31.0047 130.496 30.538 130.457 29.9109L130.23 26.7417C130.185 26.12 130.65 25.5745 131.276 25.5352L131.277 25.5292ZM121.293 26.2566L125.586 25.9428C126.206 25.897 126.75 26.3637 126.789 26.9908L127.016 30.1599C127.061 30.7817 126.595 31.3272 125.969 31.3724L121.676 31.6862C121.056 31.732 120.512 31.2653 120.467 30.6376L120.24 27.4685C120.195 26.8467 120.667 26.3018 121.286 26.2619L121.293 26.2566ZM111.309 26.9839L115.602 26.6702C116.222 26.6243 116.766 27.091 116.805 27.7181L117.032 30.8873C117.077 31.509 116.612 32.0546 115.985 32.0998L111.693 32.4135C111.072 32.4594 110.528 31.9927 110.49 31.3655L110.263 28.1964C110.217 27.5747 110.683 27.0291 111.309 26.9899L111.309 26.9839ZM101.32 27.7046L105.613 27.3909C106.233 27.3451 106.777 27.8118 106.822 28.4395L107.049 31.6086C107.094 32.2304 106.629 32.7759 106.002 32.8211L101.71 33.1349C101.089 33.1807 100.545 32.714 100.501 32.0863L100.274 28.9172C100.228 28.2954 100.7 27.7505 101.32 27.7106L101.32 27.7046ZM91.3365 28.432L95.6293 28.1182C96.2495 28.0724 96.7935 28.5391 96.8323 29.1662L97.0593 32.3354C97.1047 32.9571 96.6389 33.5026 96.0127 33.5479L91.7199 33.8616C91.0997 33.9075 90.5557 33.4407 90.5109 32.813L90.2839 29.6439C90.2385 29.0222 90.7103 28.4772 91.3299 28.4374L91.3365 28.432ZM81.3469 29.1587L85.6396 28.845C86.2598 28.7991 86.8038 29.2659 86.8486 29.8936L87.0756 33.0627C87.121 33.6844 86.6552 34.23 86.029 34.2752L81.7362 34.589C81.116 34.6348 80.572 34.1681 80.5331 33.541L80.3062 30.3718C80.2608 29.7501 80.7326 29.2052 81.3522 29.1653L81.3469 29.1587ZM71.3632 29.8861L75.6559 29.5723C76.2761 29.5265 76.8201 29.9932 76.859 30.6203L77.086 33.7894C77.1314 34.4112 76.6655 34.9567 76.0393 35.0019L71.7466 35.3157C71.1263 35.3615 70.5823 34.8948 70.5435 34.2677L70.3165 31.0986C70.2711 30.4768 70.7429 29.9319 71.3626 29.892L71.3632 29.8861ZM61.3735 30.6128L65.6662 30.299C66.2865 30.2532 66.8305 30.7199 66.8693 31.347L67.0963 34.5162C67.1417 35.1379 66.6758 35.6834 66.0496 35.7287L61.7569 36.0424C61.1367 36.0883 60.5927 35.6215 60.5538 34.9944L60.3268 31.8253C60.2814 31.2036 60.7473 30.658 61.3729 30.6188L61.3735 30.6128ZM51.3904 31.3341L55.6831 31.0204C56.3034 30.9746 56.8474 31.4413 56.8862 32.0684L57.1132 35.2375C57.1586 35.8593 56.6928 36.4048 56.0665 36.45L51.7738 36.7638C51.1536 36.8096 50.6096 36.3429 50.5648 35.7152L50.3378 32.546C50.2924 31.9243 50.7642 31.3794 51.3838 31.3395L51.3904 31.3341ZM41.4008 32.0609L45.6935 31.7471C46.3137 31.7013 46.8577 32.168 46.8966 32.7951L47.1235 35.9643C47.1689 36.586 46.7031 37.1315 46.0769 37.1768L41.7841 37.4905C41.1639 37.5363 40.6199 37.0696 40.5811 36.4425L40.3541 33.2734C40.3087 32.6517 40.7745 32.1061 41.4001 32.0669L41.4008 32.0609ZM31.4171 32.7882L35.7098 32.4745C36.33 32.4286 36.874 32.8953 36.9188 33.5231L37.1458 36.6922C37.1912 37.3139 36.7254 37.8595 36.0992 37.9047L31.8064 38.2185C31.1862 38.2643 30.6422 37.7976 30.6033 37.1705L30.3764 34.0013C30.331 33.3796 30.8028 32.8347 31.4224 32.7948L31.4171 32.7882ZM21.4274 33.515L25.7201 33.2012C26.3404 33.1554 26.8844 33.6221 26.9232 34.2492L27.1502 37.4183C27.1956 38.0401 26.7297 38.5856 26.1035 38.6308L21.8108 38.9446C21.1905 38.9904 20.6465 38.5237 20.6077 37.8966L20.3807 34.7275C20.3353 34.1057 20.8012 33.5602 21.4268 33.5209L21.4274 33.515ZM11.4437 34.2423L15.7364 33.9285C16.3567 33.8827 16.9007 34.3494 16.9395 34.9765L17.1665 38.1457C17.2119 38.7674 16.746 39.3129 16.1198 39.3582L11.8271 39.6719C11.2068 39.7178 10.6628 39.251 10.618 38.6233L10.3911 35.4542C10.3456 34.8325 10.8175 34.2875 11.4371 34.2477L11.4437 34.2423ZM1.46061 34.9636L5.75334 34.6499C6.37358 34.604 6.91758 35.0708 6.95641 35.6979L7.18339 38.867C7.22881 39.4888 6.76295 40.0343 6.13673 40.0795L1.844 40.3933C1.22375 40.4391 0.679761 39.9724 0.640927 39.3453L0.413949 36.1762C0.368528 35.5544 0.840363 35.0095 1.46 34.9696L1.46061 34.9636ZM51.5294 39.286C53.2438 39.1639 54.7356 40.459 54.8625 42.1781L57.5026 78.9529C57.6236 80.6713 56.3362 82.174 54.6159 82.2955L0.521249 86.2275C-1.19309 86.3497 -2.68548 85.0605 -2.81184 83.3355L-5.45193 46.5607C-5.57293 44.8423 -4.28615 43.3456 -2.56523 43.2181L51.5294 39.286ZM-8.52906 35.6904L-4.23633 35.3766C-3.61608 35.3308 -3.07209 35.7975 -3.03326 36.4246L-2.80628 39.5937C-2.76086 40.2155 -3.22672 40.761 -3.85294 40.8063L-8.14566 41.12C-8.76591 41.1658 -9.3099 40.6991 -9.35471 40.0714L-9.58169 36.9023C-9.62711 36.2805 -9.15528 35.7356 -8.53564 35.6958L-8.52906 35.6904ZM-18.5128 36.4177L-14.22 36.104C-13.5998 36.0581 -13.0558 36.5248 -13.0169 37.152L-12.79 40.3211C-12.7446 40.9428 -13.2104 41.4884 -13.8366 41.5336L-18.1294 41.8473C-18.7496 41.8932 -19.2936 41.4265 -19.3324 40.7994L-19.5594 37.6302C-19.6048 37.0085 -19.133 36.4636 -18.5134 36.4237L-18.5128 36.4177ZM-28.5024 37.1444L-24.2097 36.8307C-23.5894 36.7849 -23.0455 37.2516 -23.0006 37.8793L-22.7737 41.0484C-22.7282 41.6702 -23.1941 42.2157 -23.8203 42.2609L-28.1131 42.5747C-28.7333 42.6205 -29.2773 42.1538 -29.3161 41.5267L-29.5431 38.3576C-29.5885 37.7358 -29.1227 37.1903 -28.4971 37.151L-28.5024 37.1444ZM-20.0237 95.1438L-24.3165 95.4575C-24.9367 95.5034 -25.4807 95.0366 -25.5195 94.4095L-25.7465 91.2404C-25.7919 90.6187 -25.3261 90.0731 -24.7005 90.0339L-20.4077 89.7201C-19.7875 89.6743 -19.2435 90.141 -19.1987 90.7687L-18.9717 93.9379C-18.9263 94.5596 -19.3922 95.1051 -20.0178 95.1444L-20.0237 95.1438ZM-10.0341 94.4171L-14.3268 94.7308C-14.947 94.7766 -15.491 94.3099 -15.5299 93.6828L-15.7569 90.5137C-15.8023 89.8919 -15.3304 89.347 -14.7108 89.3072L-10.4181 88.9934C-9.79783 88.9476 -9.25384 89.4143 -9.215 90.0414L-8.98802 93.2105C-8.9426 93.8323 -9.40846 94.3778 -10.0341 94.4171ZM-9.0854 86.9267L-27.7878 88.2861L-30.8802 45.276L-12.1778 43.9166C-10.4629 43.7885 -8.96515 45.0842 -8.84476 46.8086L-6.20467 83.5834C-6.08367 85.3019 -7.37106 86.8045 -9.09137 86.9261L-9.0854 86.9267ZM-0.0503824 93.6897L-4.3431 94.0035C-4.96335 94.0493 -5.50735 93.5826 -5.55216 92.9549L-5.77913 89.7857C-5.82455 89.164 -5.35272 88.6191 -4.73247 88.5732L-0.439744 88.2595C0.180501 88.2136 0.724494 88.6804 0.763329 89.3075L0.99031 92.4766C1.03573 93.0983 0.569867 93.6439 -0.0557425 93.6831L-0.0503824 93.6897ZM9.93929 92.963L5.64656 93.2767C5.02631 93.3226 4.48232 92.8558 4.44348 92.2287L4.21651 89.0596C4.17109 88.4379 4.64292 87.8929 5.26256 87.8531L9.55528 87.5393C10.1755 87.4935 10.7195 87.9602 10.7584 88.5873L10.9853 91.7565C11.0308 92.3782 10.5649 92.9237 9.93929 92.963ZM19.923 92.2356L15.6303 92.5494C15.01 92.5952 14.466 92.1285 14.4212 91.5008L14.1942 88.3317C14.1488 87.7099 14.6206 87.165 15.2409 87.1192L19.5336 86.8054C20.1539 86.7596 20.6979 87.2263 20.7367 87.8534L20.9637 91.0225C21.0091 91.6443 20.5432 92.1898 19.9176 92.229L19.923 92.2356ZM29.912 91.5149L25.6193 91.8287C24.9991 91.8745 24.4551 91.4078 24.4162 90.7807L24.1893 87.6115C24.1438 86.9898 24.6097 86.4442 25.2353 86.405L29.528 86.0913C30.1483 86.0454 30.6923 86.5121 30.7311 87.1392L30.9581 90.3084C31.0035 90.9301 30.5377 91.4757 29.912 91.5149ZM39.8957 90.7875L35.603 91.1013C34.9828 91.1471 34.4388 90.6804 34.3999 90.0533L34.173 86.8842C34.1275 86.2625 34.5994 85.7175 35.219 85.6777L39.5117 85.3639C40.132 85.3181 40.676 85.7848 40.7208 86.4125L40.9478 89.5816C40.9932 90.2034 40.5273 90.7489 39.9011 90.7942L39.8957 90.7875ZM49.8854 90.0608L45.5927 90.3746C44.9724 90.4204 44.4284 89.9537 44.3896 89.3266L44.1626 86.1574C44.1172 85.5357 44.5831 84.9902 45.2087 84.9509L49.5014 84.6372C50.1216 84.5913 50.6656 85.0581 50.7045 85.6852L50.9315 88.8543C50.9769 89.476 50.511 90.0216 49.8854 90.0608ZM59.8691 89.3335L55.5764 89.6472C54.9561 89.6931 54.4121 89.2264 54.3733 88.5992L54.1463 85.4301C54.1009 84.8084 54.5727 84.2634 55.1924 84.2236L59.4851 83.9098C60.1053 83.864 60.6493 84.3307 60.6882 84.9578L60.9151 88.127C60.9606 88.7487 60.4947 89.2942 59.8691 89.3335ZM60.8895 78.7043L58.2494 41.9295C58.1284 40.2111 59.4152 38.7144 61.1361 38.5869L115.231 34.6549C116.945 34.5327 118.437 35.8278 118.564 37.5469L121.204 74.3217C121.325 76.0401 120.038 77.5428 118.317 77.6643L64.2225 81.5964C62.5082 81.7185 61.0099 80.4287 60.8895 78.7043ZM69.8528 88.6061L65.5601 88.9199C64.9398 88.9657 64.3958 88.499 64.357 87.8719L64.13 84.7028C64.0846 84.081 64.5505 83.5355 65.1761 83.4962L69.4688 83.1825C70.089 83.1367 70.633 83.6034 70.6719 84.2305L70.8988 87.3996C70.9443 88.0214 70.4784 88.5669 69.8528 88.6061ZM79.8419 87.8854L75.5491 88.1991C74.9289 88.245 74.3849 87.7783 74.346 87.1512L74.1191 83.982C74.0737 83.3603 74.5455 82.8154 75.1651 82.7755L79.4578 82.4617C80.0781 82.4159 80.6221 82.8826 80.6609 83.5097L80.8879 86.6789C80.9333 87.3006 80.4675 87.8462 79.8419 87.8854ZM89.8255 87.1581L85.5328 87.4718C84.9126 87.5176 84.3686 87.0509 84.3297 86.4238L84.1028 83.2547C84.0573 82.633 84.5292 82.088 85.1488 82.0482L89.4415 81.7344C90.0618 81.6886 90.6058 82.1553 90.6506 82.783L90.8776 85.9521C90.923 86.5739 90.4571 87.1194 89.8315 87.1587L89.8255 87.1581ZM99.8152 86.4313L95.5225 86.7451C94.9022 86.7909 94.3582 86.3242 94.3134 85.6965L94.0865 82.5273C94.041 81.9056 94.5129 81.3607 95.1331 81.3148L99.4258 81.0011C100.046 80.9553 100.59 81.422 100.629 82.0491L100.856 85.2182C100.901 85.8399 100.435 86.3855 99.8099 86.4247L99.8152 86.4313ZM109.799 85.704L105.506 86.0177C104.886 86.0636 104.342 85.5968 104.297 84.9691L104.07 81.8C104.025 81.1783 104.497 80.6333 105.116 80.5935L109.409 80.2797C110.029 80.2339 110.573 80.7006 110.618 81.3283L110.845 84.4975C110.89 85.1192 110.425 85.6647 109.799 85.704ZM119.789 84.9773L115.496 85.291C114.876 85.3368 114.332 84.8701 114.293 84.243L114.066 81.0739C114.02 80.4521 114.486 79.9066 115.112 79.8614L119.405 79.5476C120.025 79.5018 120.569 79.9685 120.608 80.5956L120.835 83.7647C120.881 84.3865 120.415 84.932 119.789 84.9713L119.789 84.9773ZM129.772 84.2559L125.479 84.5697C124.859 84.6155 124.315 84.1488 124.27 83.5211L124.043 80.3519C123.997 79.7302 124.469 79.1853 125.09 79.1394L129.382 78.8257C130.003 78.7798 130.547 79.2465 130.585 79.8737L130.812 83.0428C130.858 83.6645 130.392 84.2101 129.766 84.2493L129.772 84.2559ZM139.761 83.5292L135.469 83.8429C134.848 83.8888 134.304 83.422 134.266 82.7949L134.039 79.6258C133.993 79.0041 134.459 78.4585 135.085 78.4193L139.377 78.1055C139.998 78.0597 140.542 78.5264 140.58 79.1535L140.807 82.3226C140.853 82.9444 140.387 83.4899 139.761 83.5292ZM149.745 82.8018L145.452 83.1156C144.832 83.1614 144.288 82.6947 144.249 82.0676L144.022 78.8985C143.977 78.2767 144.449 77.7318 145.068 77.6919L149.361 77.3782C149.981 77.3323 150.525 77.7991 150.564 78.4262L150.791 81.5953C150.836 82.217 150.371 82.7626 149.745 82.8018ZM159.735 82.0751L155.442 82.3888C154.822 82.4347 154.278 81.968 154.239 81.3409L154.012 78.1717C153.966 77.55 154.432 77.0044 155.059 76.9592L159.351 76.6455C159.972 76.5996 160.516 77.0663 160.554 77.6935L160.781 80.8626C160.827 81.4843 160.361 82.0299 159.735 82.0691L159.735 82.0751ZM169.718 81.3478L165.426 81.6615C164.805 81.7073 164.261 81.2406 164.223 80.6135L163.996 77.4444C163.95 76.8226 164.422 76.2777 165.042 76.2379L169.334 75.9241C169.955 75.8783 170.499 76.345 170.537 76.9721L170.764 80.1412C170.81 80.763 170.344 81.3085 169.718 81.3478ZM179.701 80.6264L175.409 80.9401C174.788 80.986 174.245 80.5193 174.206 79.8922L173.979 76.723C173.933 76.1013 174.399 75.5558 175.025 75.5165L179.317 75.2028C179.938 75.1569 180.482 75.6236 180.521 76.2507L180.748 79.4199C180.793 80.0416 180.327 80.5872 179.701 80.6264ZM182.024 73.0338L127.93 76.9658C126.215 77.088 124.723 75.7988 124.597 74.0738L121.957 37.2989C121.836 35.5805 123.122 34.0839 124.843 33.9563L178.938 30.0243C180.652 29.9021 182.144 31.1973 182.271 32.9163L184.911 69.6911C185.032 71.4096 183.745 72.9122 182.024 73.0338ZM189.691 79.8997L185.398 80.2134C184.778 80.2593 184.234 79.7925 184.195 79.1654L183.968 75.9963C183.923 75.3746 184.395 74.8296 185.015 74.7838L189.308 74.47C189.928 74.4242 190.472 74.8909 190.511 75.518L190.738 78.6872C190.783 79.3089 190.317 79.8544 189.692 79.8937L189.691 79.8997ZM188.297 69.4486L185.657 32.6738C185.536 30.9553 186.823 29.4587 188.544 29.3311L242.639 25.3991C244.354 25.271 245.845 26.5661 245.972 28.2911L248.612 65.066C248.733 66.7844 247.445 68.287 245.725 68.4086L191.631 72.3406C189.916 72.4688 188.424 71.1736 188.297 69.4486ZM199.675 79.1723L195.382 79.4861C194.762 79.5319 194.218 79.0652 194.179 78.4381L193.952 75.269C193.907 74.6472 194.378 74.1023 194.999 74.0565L199.291 73.7427C199.912 73.6969 200.456 74.1636 200.495 74.7907L200.721 77.9598C200.767 78.5816 200.301 79.1271 199.675 79.1663L199.675 79.1723ZM209.664 78.4456L205.372 78.7593C204.752 78.8052 204.208 78.3385 204.169 77.7114L203.942 74.5422C203.896 73.9205 204.362 73.3749 204.988 73.3357L209.281 73.022C209.901 72.9761 210.445 73.4428 210.484 74.0699L210.711 77.2391C210.756 77.8608 210.29 78.4064 209.664 78.4456ZM219.648 77.7183L215.355 78.032C214.735 78.0778 214.191 77.6111 214.146 76.9834L213.919 73.8143C213.874 73.1925 214.346 72.6476 214.965 72.6078L219.258 72.294C219.878 72.2482 220.422 72.7149 220.461 73.342L220.688 76.5111C220.734 77.1329 220.268 77.6784 219.642 77.7176L219.648 77.7183ZM229.637 76.9975L225.345 77.3113C224.724 77.3571 224.18 76.8904 224.141 76.2633L223.914 73.0941C223.869 72.4724 224.335 71.9269 224.961 71.8876L229.253 71.5739C229.874 71.528 230.417 71.9947 230.456 72.6219L230.683 75.791C230.729 76.4127 230.263 76.9583 229.637 76.9975ZM239.621 76.2702L235.328 76.5839C234.708 76.6298 234.164 76.163 234.125 75.5359L233.898 72.3668C233.853 71.7451 234.325 71.2001 234.944 71.1603L239.237 70.8465C239.857 70.8007 240.401 71.2674 240.44 71.8945L240.667 75.0637C240.712 75.6854 240.247 76.2309 239.621 76.2702ZM249.611 75.5434L245.318 75.8572C244.698 75.903 244.154 75.4363 244.115 74.8092L243.888 71.6401C243.842 71.0183 244.314 70.4734 244.934 70.4336L249.227 70.1198C249.847 70.074 250.391 70.5407 250.43 71.1678L250.657 74.3369C250.702 74.9586 250.236 75.5042 249.611 75.5434ZM259.594 74.8161L255.302 75.1299C254.681 75.1757 254.137 74.709 254.098 74.0819L253.872 70.9127C253.826 70.291 254.298 69.7461 254.918 69.7062L259.21 69.3925C259.831 69.3466 260.375 69.8133 260.419 70.441L260.646 73.6102C260.692 74.2319 260.226 74.7775 259.6 74.8167L259.594 74.8161ZM269.584 74.0894L265.291 74.4031C264.671 74.449 264.127 73.9822 264.088 73.3551L263.861 70.186C263.816 69.5643 264.288 69.0193 264.907 68.9795L269.2 68.6657C269.82 68.6199 270.364 69.0866 270.403 69.7137L270.63 72.8829C270.675 73.5046 270.21 74.0501 269.584 74.0894ZM279.567 73.368L275.274 73.6818C274.654 73.7276 274.11 73.2609 274.071 72.6338L273.844 69.4646C273.799 68.8429 274.265 68.2974 274.89 68.2581L279.183 67.9444C279.803 67.8985 280.347 68.3653 280.392 68.993L280.619 72.1621C280.664 72.7838 280.199 73.3294 279.573 73.3686L279.567 73.368ZM289.557 72.6413L285.264 72.955C284.644 73.0009 284.1 72.5342 284.061 71.9071L283.834 68.7379C283.789 68.1162 284.254 67.5706 284.88 67.5314L289.173 67.2176C289.793 67.1718 290.337 67.6385 290.376 68.2656L290.603 71.4348C290.648 72.0565 290.182 72.602 289.557 72.6413ZM299.54 71.9139L295.248 72.2277C294.627 72.2735 294.083 71.8068 294.039 71.1791L293.812 68.01C293.766 67.3882 294.238 66.8433 294.858 66.8034L299.15 66.4897C299.771 66.4439 300.315 66.9106 300.354 67.5377L300.581 70.7068C300.626 71.3285 300.16 71.8741 299.534 71.9133L299.54 71.9139ZM309.524 71.1866L305.231 71.5004C304.611 71.5462 304.067 71.0795 304.028 70.4524L303.801 67.2832C303.756 66.6615 304.222 66.116 304.847 66.0767L309.14 65.763C309.76 65.7171 310.304 66.1838 310.349 66.8116L310.576 69.9807C310.622 70.6024 310.156 71.148 309.53 71.1872L309.524 71.1866ZM309.426 63.7774L255.332 67.7094C253.617 67.8376 252.119 66.5418 251.999 64.8174L249.359 28.0426C249.238 26.3242 250.524 24.8275 252.245 24.7L306.34 20.7679C308.061 20.6404 309.553 21.9355 309.673 23.66L312.313 60.4348C312.434 62.1532 311.147 63.6558 309.426 63.7774ZM319.514 70.4599L315.221 70.7736C314.601 70.8195 314.057 70.3527 314.018 69.7256L313.791 66.5565C313.746 65.9348 314.211 65.3892 314.837 65.35L319.13 65.0362C319.75 64.9904 320.294 65.4571 320.333 66.0842L320.56 69.2534C320.605 69.8751 320.139 70.4206 319.514 70.4599ZM329.497 69.7385L325.204 70.0523C324.584 70.0981 324.04 69.6314 323.995 69.0037L323.768 65.8345C323.723 65.2128 324.195 64.6679 324.814 64.628L329.107 64.3143C329.727 64.2684 330.271 64.7352 330.31 65.3623L330.537 68.5314C330.582 69.1531 330.117 69.6987 329.491 69.7379L329.497 69.7385ZM339.487 69.0118L335.194 69.3255C334.574 69.3714 334.03 68.9047 333.991 68.2775L333.764 65.1084C333.718 64.4867 334.19 63.9417 334.81 63.9019L339.103 63.5881C339.723 63.5423 340.267 64.009 340.306 64.6361L340.533 67.8053C340.578 68.427 340.112 68.9725 339.487 69.0118ZM349.47 68.2844L345.178 68.5982C344.557 68.644 344.013 68.1773 343.974 67.5502L343.747 64.3811C343.702 63.7593 344.174 63.2144 344.793 63.1746L349.086 62.8608C349.706 62.815 350.25 63.2817 350.289 63.9088L350.516 67.0779C350.562 67.6997 350.096 68.2452 349.47 68.2844ZM359.46 67.5577L355.167 67.8715C354.547 67.9173 354.003 67.4506 353.964 66.8235L353.737 63.6543C353.692 63.0326 354.164 62.4877 354.783 62.4478L359.076 62.1341C359.696 62.0882 360.24 62.555 360.279 63.1821L360.506 66.3512C360.551 66.9729 360.086 67.5185 359.46 67.5577ZM369.443 66.8364L365.15 67.1501C364.53 67.196 363.986 66.7292 363.947 66.1021L363.72 62.933C363.675 62.3113 364.147 61.7663 364.766 61.7265L369.059 61.4127C369.679 61.3669 370.223 61.8336 370.262 62.4607L370.489 65.6298C370.534 66.2516 370.069 66.7971 369.443 66.8364ZM319.033 63.0783C317.854 63.164 316.778 62.5828 316.185 61.6452C315.915 61.2184 315.742 60.7229 315.706 60.1868L313.066 23.412C313.03 22.8759 313.125 22.3592 313.334 21.9026C313.793 20.8904 314.767 20.1606 315.952 20.0754L370.047 16.1433C371.762 16.0152 373.259 17.311 373.38 19.0354L376.02 55.8102C376.141 57.5286 374.853 59.0313 373.133 59.1528L319.039 63.0849L319.033 63.0783ZM379.433 66.1096L375.14 66.4234C374.52 66.4692 373.976 66.0025 373.931 65.3748L373.704 62.2056C373.658 61.5839 374.13 61.039 374.751 60.9931L379.043 60.6794C379.664 60.6336 380.208 61.1003 380.246 61.7274L380.473 64.8965C380.519 65.5182 380.053 66.0638 379.427 66.103L379.433 66.1096ZM379.401 55.5551L376.761 18.7802C376.64 17.0618 377.927 15.5652 379.648 15.4376L433.743 11.5056C435.458 11.3774 436.955 12.6732 437.076 14.3976L439.716 51.1724C439.837 52.8909 438.549 54.3935 436.829 54.515L382.734 58.4471C381.014 58.5746 379.522 57.2795 379.401 55.5551ZM389.416 65.3823L385.124 65.696C384.503 65.7419 383.959 65.2752 383.921 64.648L383.694 61.4789C383.648 60.8572 384.114 60.3116 384.74 60.2664L389.033 59.9527C389.653 59.9068 390.197 60.3735 390.242 61.0013L390.469 64.1704C390.514 64.7921 390.049 65.3377 389.422 65.3829L389.416 65.3823ZM399.406 64.6556L395.113 64.9693C394.493 65.0151 393.949 64.5484 393.91 63.9213L393.683 60.7522C393.638 60.1304 394.11 59.5855 394.73 59.5397L399.023 59.2259C399.643 59.1801 400.187 59.6468 400.226 60.2739L400.453 63.4431C400.498 64.0648 400.032 64.6103 399.407 64.6496L399.406 64.6556ZM409.39 63.9282L405.097 64.242C404.477 64.2878 403.933 63.8211 403.888 63.1934L403.661 60.0242C403.616 59.4025 404.087 58.8576 404.708 58.8117L409 58.498C409.621 58.4521 410.165 58.9189 410.203 59.546L410.43 62.7151C410.476 63.3368 410.01 63.8824 409.384 63.9216L409.39 63.9282ZM419.379 63.2015L415.087 63.5152C414.466 63.5611 413.922 63.0944 413.884 62.4672L413.657 59.2981C413.611 58.6764 414.083 58.1314 414.703 58.0916L418.995 57.7778C419.616 57.732 420.16 58.1987 420.198 58.8258L420.425 61.995C420.471 62.6167 420.005 63.1622 419.379 63.2015ZM429.362 62.4801L425.07 62.7939C424.45 62.8397 423.905 62.373 423.867 61.7459L423.64 58.5768C423.594 57.955 424.066 57.4101 424.686 57.3642L428.979 57.0505C429.599 57.0047 430.143 57.4714 430.182 58.0985L430.409 61.2676C430.455 61.8894 429.989 62.4349 429.363 62.4741L429.362 62.4801ZM439.346 61.7528L435.053 62.0665C434.433 62.1124 433.889 61.6457 433.85 61.0186L433.623 57.8494C433.578 57.2277 434.044 56.6821 434.669 56.6429L438.962 56.3291C439.582 56.2833 440.126 56.75 440.171 57.3777L440.398 60.5469C440.444 61.1686 439.978 61.7142 439.352 61.7534L439.346 61.7528Z" fill="#00C700" fill-opacity="0.09"/>
</svg>
